<?xml version="1.0"?>
<svg xmlns="http://www.w3.org/2000/svg" height="512px" version="1.1" viewBox="0 0 748.74954 748" width="512px">
<g id="surface1">
<path d="M 736.269531 0.375 L 262.066406 0.375 C 255.175781 0.375 249.585938 5.964844 249.585938 12.851562 L 249.585938 112.6875 C 249.585938 119.578125 255.175781 125.164062 262.066406 125.164062 L 299.5 125.164062 L 299.5 175.078125 L 723.792969 175.078125 L 723.792969 249.957031 L 524.125 249.957031 L 524.125 274.914062 L 623.960938 274.914062 L 623.960938 299.875 L 524.125 299.875 L 524.125 324.832031 L 723.792969 324.832031 L 723.792969 399.703125 L 524.125 399.703125 L 524.125 424.664062 L 623.960938 424.664062 L 623.960938 449.621094 L 524.125 449.621094 L 524.125 474.578125 L 723.792969 474.578125 L 723.792969 549.457031 L 499.167969 549.457031 L 499.167969 574.414062 L 623.960938 574.414062 L 623.960938 611.847656 C 623.960938 618.742188 629.546875 624.332031 636.4375 624.332031 L 686.355469 624.332031 C 693.246094 624.332031 698.835938 618.742188 698.835938 611.847656 L 698.835938 574.414062 L 736.269531 574.414062 C 743.167969 574.414062 748.75 568.824219 748.75 561.933594 L 748.75 462.101562 C 748.75 455.210938 743.167969 449.621094 736.269531 449.621094 L 698.835938 449.621094 L 698.835938 424.664062 L 736.269531 424.664062 C 743.167969 424.664062 748.75 419.078125 748.75 412.1875 L 748.75 312.355469 C 748.75 305.457031 743.167969 299.875 736.269531 299.875 L 698.835938 299.875 L 698.835938 274.914062 L 736.269531 274.914062 C 743.167969 274.914062 748.75 269.324219 748.75 262.433594 L 748.75 162.601562 C 748.75 155.710938 743.167969 150.121094 736.269531 150.121094 L 698.835938 150.121094 L 698.835938 125.164062 L 736.269531 125.164062 C 743.167969 125.164062 748.75 119.578125 748.75 112.6875 L 748.75 12.851562 C 748.75 5.964844 743.167969 0.375 736.269531 0.375 Z M 673.878906 599.371094 L 648.917969 599.371094 L 648.917969 574.414062 L 673.878906 574.414062 Z M 673.878906 449.621094 L 648.917969 449.621094 L 648.917969 424.664062 L 673.878906 424.664062 Z M 673.878906 299.875 L 648.917969 299.875 L 648.917969 274.914062 L 673.878906 274.914062 Z M 324.457031 150.121094 L 324.457031 125.164062 L 349.421875 125.164062 L 349.421875 150.121094 Z M 623.960938 125.164062 L 623.960938 150.121094 L 374.378906 150.121094 L 374.378906 125.164062 Z M 673.878906 150.121094 L 648.917969 150.121094 L 648.917969 125.164062 L 673.878906 125.164062 Z M 723.792969 100.207031 L 274.542969 100.207031 L 274.542969 25.332031 L 723.792969 25.332031 Z M 723.792969 100.207031 " style=" fill-rule:nonzero;fill-opacity:1;" stroke="#FFFFFF" fill="#FFFFFF"/>
<path d="M 673.878906 50.289062 L 698.835938 50.289062 L 698.835938 75.246094 L 673.878906 75.246094 Z M 673.878906 50.289062 " style=" fill-rule:nonzero;fill-opacity:1;" stroke="#FFFFFF" fill="#FFFFFF"/>
<path d="M 623.960938 50.289062 L 648.917969 50.289062 L 648.917969 75.246094 L 623.960938 75.246094 Z M 623.960938 50.289062 " style=" fill-rule:nonzero;fill-opacity:1;" stroke="#FFFFFF" fill="#FFFFFF"/>
<path d="M 574.042969 50.289062 L 599 50.289062 L 599 75.246094 L 574.042969 75.246094 Z M 574.042969 50.289062 " style=" fill-rule:nonzero;fill-opacity:1;" stroke="#FFFFFF" fill="#FFFFFF"/>
<path d="M 299.5 50.289062 L 324.457031 50.289062 L 324.457031 75.246094 L 299.5 75.246094 Z M 299.5 50.289062 " style=" fill-rule:nonzero;fill-opacity:1;" stroke="#FFFFFF" fill="#FFFFFF"/>
<path d="M 673.878906 200.042969 L 698.835938 200.042969 L 698.835938 225 L 673.878906 225 Z M 673.878906 200.042969 " style=" fill-rule:nonzero;fill-opacity:1;" stroke="#FFFFFF" fill="#FFFFFF"/>
<path d="M 623.960938 200.042969 L 648.917969 200.042969 L 648.917969 225 L 623.960938 225 Z M 623.960938 200.042969 " style=" fill-rule:nonzero;fill-opacity:1;" stroke="#FFFFFF" fill="#FFFFFF"/>
<path d="M 574.042969 200.042969 L 599 200.042969 L 599 225 L 574.042969 225 Z M 574.042969 200.042969 " style=" fill-rule:nonzero;fill-opacity:1;" stroke="#FFFFFF" fill="#FFFFFF"/>
<path d="M 673.878906 349.789062 L 698.835938 349.789062 L 698.835938 374.746094 L 673.878906 374.746094 Z M 673.878906 349.789062 " style=" fill-rule:nonzero;fill-opacity:1;" stroke="#FFFFFF" fill="#FFFFFF"/>
<path d="M 623.960938 349.789062 L 648.917969 349.789062 L 648.917969 374.746094 L 623.960938 374.746094 Z M 623.960938 349.789062 " style=" fill-rule:nonzero;fill-opacity:1;" stroke="#FFFFFF" fill="#FFFFFF"/>
<path d="M 574.042969 349.789062 L 599 349.789062 L 599 374.746094 L 574.042969 374.746094 Z M 574.042969 349.789062 " style=" fill-rule:nonzero;fill-opacity:1;" stroke="#FFFFFF" fill="#FFFFFF"/>
<path d="M 673.878906 499.535156 L 698.835938 499.535156 L 698.835938 524.5 L 673.878906 524.5 Z M 673.878906 499.535156 " style=" fill-rule:nonzero;fill-opacity:1;" stroke="#FFFFFF" fill="#FFFFFF"/>
<path d="M 623.960938 499.535156 L 648.917969 499.535156 L 648.917969 524.5 L 623.960938 524.5 Z M 623.960938 499.535156 " style=" fill-rule:nonzero;fill-opacity:1;" stroke="#FFFFFF" fill="#FFFFFF"/>
<path d="M 574.042969 499.535156 L 599 499.535156 L 599 524.5 L 574.042969 524.5 Z M 574.042969 499.535156 " style=" fill-rule:nonzero;fill-opacity:1;" stroke="#FFFFFF" fill="#FFFFFF"/>
<path d="M 499.167969 262.433594 C 499.167969 255.542969 493.582031 249.957031 486.691406 249.957031 C 407.765625 250.035156 330.601562 226.671875 264.980469 182.832031 L 256.507812 177.175781 C 252.3125 174.382812 246.851562 174.382812 242.65625 177.175781 L 234.183594 182.832031 C 168.5625 226.671875 91.398438 250.035156 12.480469 249.957031 C 5.589844 249.957031 0 255.542969 0 262.433594 L 0 413.125 C -0.441406 566.726562 99.226562 702.710938 245.835938 748.539062 C 248.277344 749.3125 250.890625 749.3125 253.328125 748.539062 C 399.941406 702.710938 499.605469 566.726562 499.167969 413.125 Z M 474.210938 413.125 C 474.605469 554.367188 383.871094 679.746094 249.585938 723.53125 C 115.292969 679.746094 24.558594 554.367188 24.964844 413.125 L 24.964844 274.726562 C 104.527344 272.476562 181.84375 247.824219 248.027344 203.597656 L 249.585938 202.539062 L 251.148438 203.570312 C 317.320312 247.804688 394.640625 272.46875 474.210938 274.726562 Z M 474.210938 413.125 " style=" fill-rule:nonzero;fill-opacity:1;" stroke="#FFFFFF" fill="#FFFFFF"/>
<path d="M 243.171875 236.230469 C 187.628906 269.582031 125.484375 290.410156 61.058594 297.265625 C 54.71875 297.949219 49.921875 303.296875 49.921875 309.671875 L 49.921875 413.125 C 49.140625 538.957031 127.191406 651.824219 245.195312 695.527344 C 248.003906 696.589844 251.113281 696.589844 253.921875 695.527344 C 371.953125 651.839844 450.019531 538.96875 449.253906 413.125 L 449.253906 309.671875 C 449.246094 303.296875 444.445312 297.949219 438.105469 297.265625 C 373.691406 290.410156 311.535156 269.578125 255.996094 236.230469 C 252.046875 233.863281 247.121094 233.863281 243.171875 236.230469 Z M 424.292969 320.75 L 424.292969 413.097656 C 425.023438 526.808594 355.535156 629.199219 249.585938 670.507812 C 143.640625 629.199219 74.152344 526.828125 74.878906 413.125 L 74.878906 320.773438 C 136.472656 312.734375 195.855469 292.554688 249.585938 261.386719 C 303.316406 292.535156 362.703125 312.71875 424.292969 320.75 Z M 424.292969 320.75 " style=" fill-rule:nonzero;fill-opacity:1;" stroke="#FFFFFF" fill="#FFFFFF"/>
<path d="M 237.109375 299.875 L 262.066406 299.875 L 262.066406 324.832031 L 237.109375 324.832031 Z M 237.109375 299.875 " style=" fill-rule:nonzero;fill-opacity:1;" stroke="#FFFFFF" fill="#FFFFFF"/>
<path d="M 237.109375 611.847656 L 262.066406 611.847656 L 262.066406 636.8125 L 237.109375 636.8125 Z M 237.109375 611.847656 " style=" fill-rule:nonzero;fill-opacity:1;" stroke="#FFFFFF" fill="#FFFFFF"/>
<path d="M 99.835938 349.789062 L 124.792969 349.789062 L 124.792969 374.746094 L 99.835938 374.746094 Z M 99.835938 349.789062 " style=" fill-rule:nonzero;fill-opacity:1;" stroke="#FFFFFF" fill="#FFFFFF"/>
<path d="M 162.234375 324.832031 L 187.191406 324.832031 L 187.191406 349.789062 L 162.234375 349.789062 Z M 162.234375 324.832031 " style=" fill-rule:nonzero;fill-opacity:1;" stroke="#FFFFFF" fill="#FFFFFF"/>
<path d="M 374.378906 349.789062 L 399.335938 349.789062 L 399.335938 374.746094 L 374.378906 374.746094 Z M 374.378906 349.789062 " style=" fill-rule:nonzero;fill-opacity:1;" stroke="#FFFFFF" fill="#FFFFFF"/>
<path d="M 99.835938 424.664062 L 124.792969 424.664062 L 124.792969 449.621094 L 99.835938 449.621094 Z M 99.835938 424.664062 " style=" fill-rule:nonzero;fill-opacity:1;" stroke="#FFFFFF" fill="#FFFFFF"/>
<path d="M 374.378906 424.664062 L 399.335938 424.664062 L 399.335938 449.621094 L 374.378906 449.621094 Z M 374.378906 424.664062 " style=" fill-rule:nonzero;fill-opacity:1;" stroke="#FFFFFF" fill="#FFFFFF"/>
<path d="M 124.792969 499.535156 L 149.753906 499.535156 L 149.753906 524.5 L 124.792969 524.5 Z M 124.792969 499.535156 " style=" fill-rule:nonzero;fill-opacity:1;" stroke="#FFFFFF" fill="#FFFFFF"/>
<path d="M 349.421875 499.535156 L 374.378906 499.535156 L 374.378906 524.5 L 349.421875 524.5 Z M 349.421875 499.535156 " style=" fill-rule:nonzero;fill-opacity:1;" stroke="#FFFFFF" fill="#FFFFFF"/>
<path d="M 174.710938 574.414062 L 199.667969 574.414062 L 199.667969 599.371094 L 174.710938 599.371094 Z M 174.710938 574.414062 " style=" fill-rule:nonzero;fill-opacity:1;" stroke="#FFFFFF" fill="#FFFFFF"/>
<path d="M 299.5 574.414062 L 324.457031 574.414062 L 324.457031 599.371094 L 299.5 599.371094 Z M 299.5 574.414062 " style=" fill-rule:nonzero;fill-opacity:1;" stroke="#FFFFFF" fill="#FFFFFF"/>
<path d="M 311.980469 324.832031 L 336.9375 324.832031 L 336.9375 349.789062 L 311.980469 349.789062 Z M 311.980469 324.832031 " style=" fill-rule:nonzero;fill-opacity:1;" stroke="#FFFFFF" fill="#FFFFFF"/>
</g>
</svg>
