<?xml version="1.0"?>
<svg xmlns="http://www.w3.org/2000/svg" height="512px" viewBox="0 -80 512.00005 512" width="512px"><path d="m391.808594 96.0625c-26.511719-74.996094-108.800782-114.300781-183.796875-87.789062-51.96875 18.371093-88.894531 64.789062-95.109375 119.558593h-.878906c-61.867188 0-112.023438 50.152344-112.023438 112.019531 0 61.871094 50.15625 112.023438 112.023438 112.023438h272.054687c70.707031-.058594 127.980469-57.425781 127.921875-128.132812-.054688-67.621094-52.695312-123.539063-120.191406-127.679688zm-7.730469 223.808594h-272.054687c-44.191407 0-80.015626-35.824219-80.015626-80.019532 0-44.191406 35.824219-80.015624 80.015626-80.015624h16.003906c8.835937 0 16.003906-7.164063 16.003906-16.003907.289062-61.867187 50.675781-111.785156 112.542969-111.496093 50.753906.234374 95.007812 34.566406 107.855469 83.667968 1.789062 7.304688 8.484374 12.332032 16.003906 12.019532l3.648437-.195313c53.027344 0 96.019531 42.992187 96.019531 96.023437 0 53.027344-42.992187 96.019532-96.023437 96.019532zm0 0" fill="#FFFFFF"/></svg>
