<?xml version="1.0"?>
<svg xmlns="http://www.w3.org/2000/svg" viewBox="0 -31 512 512" width="512px" height="512px"><path d="m467 120h-15v-75c0-24.8125-20.1875-45-45-45h-332c-24.8125 0-45 20.1875-45 45v225h-15c-8.285156 0-15 6.714844-15 15 0 41.355469 33.644531 75 75 75h227v45c0 24.8125 20.1875 45 45 45h120c24.8125 0 45-20.1875 45-45v-240c0-24.8125-20.1875-45-45-45zm-135 90h150v150h-150zm150-45v15h-150v-15c0-8.269531 6.730469-15 15-15h120c8.269531 0 15 6.730469 15 15zm-422-120c0-8.269531 6.730469-15 15-15h332c8.269531 0 15 6.730469 15 15v75h-75c-24.8125 0-45 20.1875-45 45v105h-242zm15 285c-19.554688 0-36.238281-12.539062-42.429688-30h269.429688v30zm392 90h-120c-8.269531 0-15-6.730469-15-15v-15h150v15c0 8.269531-6.730469 15-15 15zm0 0" fill="#FFFFFF"/></svg>
